<?xml version="1.0" encoding="utf-8"?>
<!-- Generator: Adobe Illustrator 19.0.0, SVG Export Plug-In . SVG Version: 6.00 Build 0)  -->
<svg version="1.1" id="layer" xmlns="http://www.w3.org/2000/svg" xmlns:xlink="http://www.w3.org/1999/xlink" x="0px" y="0px"
	 viewBox="-153 -46 652 652" style="enable-background:new -153 -46 652 652;" xml:space="preserve">
<style type="text/css">
	.st0{fill:#002C58;}
	.st1{fill:#008CCF;}
	.st2{fill:#F39800;}
</style>
<path class="st0" d="M258.8,342.2c7.3,0,11.7-5.2,12.6-10.8c0.8-5-1.7-10.8-8.9-10.8c-7.3,0-11.7,5.2-12.6,10.8
	C249.1,336.4,251.6,342.2,258.8,342.2 M258.6,345.2c-8.7,0-13-7-11.9-14c1.1-6.8,6.7-13.6,16-13.6c8.7,0,13,7,11.9,14
	C273.5,338.4,268.2,345.2,258.6,345.2 M306.6,326.4l-9.1,18.3h-3.2l-2.7-14.1l-7.3,14.1H281l-3.4-18.3h3.1l2.5,14.5l7.5-14.5h2.7
	l2.8,14.5l7-14.5H306.6z M319.7,326c4.5,0,7,3.1,6.3,7.6l-1.8,11.2h-3.1l1.8-11c0.5-3.4-1.3-4.9-4-4.9c-2.6,0-5.2,1.9-6.7,3.7
	l-1.9,12.2h-3.1l2.9-18.3h2.7l-0.5,2.9C314.1,327.5,316.7,326,319.7,326 M350.7,326c2.1,0,4,0.6,5.7,1.7l-0.5,2.9
	c-1.3-1.2-3.1-1.7-4.9-1.7c-3.6,0-7.7,1.8-8.5,6.8c-0.7,4.7,2.3,6.8,6.2,6.8c2,0,4-0.7,5.8-1.6l-0.5,3.2c-1.9,0.8-3.8,1.3-6,1.3
	c-5,0-9.5-3.2-8.5-9.9C340.4,328.6,346,326,350.7,326 M365.3,318l-1.8,10.9c1.8-1.6,4.3-3,6.9-3c4.5,0,7,3.1,6.3,7.6l-1.8,11.2H372
	l1.8-11c0.5-3.4-1.3-4.9-4-4.9c-2.6,0-5.2,1.9-6.7,3.8l-1.9,12.2H358l4.2-26.7H365.3z M388.9,342.4c3.4,0,6.2-2.2,7.6-4.6l0.7-4.6
	c-0.6-2.3-2.7-4.4-5.9-4.4c-3.6,0-7,2.5-7.7,6.8C383,339.7,385.4,342.4,388.9,342.4 M388.4,345.2c-5.3,0-8.6-4.2-7.7-9.8
	c0.8-5.4,5.3-9.4,10.5-9.4c3.6,0,5.7,1.8,7,3.6l0.5-3.2h2.7l-2.9,18.3h-2.7l0.5-3.1C394.4,343.7,391.8,345.2,388.4,345.2 M416.6,326
	c4.5,0,7,3.1,6.3,7.6l-1.8,11.2h-3l1.8-11c0.5-3.4-1.3-4.9-4-4.9c-2.6,0-5.2,1.9-6.7,3.7l-1.9,12.2h-3.1l2.9-18.3h2.7l-0.5,2.9
	C411,327.5,413.6,326,416.6,326 M434.9,342.4c3.4,0,6.2-2.1,7.6-4.3l0.8-4.9c-0.6-2.3-2.7-4.4-6-4.4c-3.6,0-7,2.5-7.7,6.8
	C429,339.7,431.4,342.4,434.9,342.4 M433.6,353.6c-3.4,0-5.8-0.7-7.6-1.9l0.5-2.9c1.8,1.3,3.9,2,6.9,2c4,0,7.4-1.8,8.1-6.1l0.4-2.6
	c-1.6,1.6-4,3.2-7.5,3.2c-5.3,0-8.6-4.2-7.7-9.8c0.8-5.4,5.3-9.4,10.5-9.4c3.6,0,5.7,1.7,6.9,3.8l0.5-3.3h2.8l-2.9,18.4
	C443.5,351.2,438.6,353.6,433.6,353.6 M460.9,328.8c-3.3,0-6.5,2.1-7.3,5.6h11.9C466.1,332.3,465.5,328.8,460.9,328.8 M460.9,326
	c7,0,8.9,5.8,6.9,11.1h-14.6c-0.2,3.9,3.3,5.3,6.6,5.3c2.4,0,4.7-0.6,6.5-1.6l-0.5,3.1c-1.8,0.8-4.1,1.3-6.6,1.3
	c-4.8,0-9.9-3.1-8.9-9.7C451.4,329.2,456.5,326,460.9,326 M132.4,252.9l33.4,40.9h-21.7l-31.2-38.1v38.1H93.3v-81.3h19.6v36.8h0.2
	l24.8-36.8h21.6L132.4,252.9z M-18.8,293.8v-64.3h-25.5v-16.9h70.8v16.9H1v64.3H-18.8z M30.6,293.8v-81.2h57.9v16.3H50.1v16.6h36.6
	v14.9H50.1v17.2h39v16.3H30.6z M463,250.2h0.3c0.3,0,0.6-0.1,0.6-0.4c0-0.3-0.2-0.4-0.6-0.4c-0.2,0-0.3,0-0.3,0V250.2z M462.9,251.7
	h-0.6v-2.8c0.2,0,0.6-0.1,1.1-0.1c0.5,0,0.8,0.1,0.9,0.2c0.2,0.1,0.3,0.3,0.3,0.6c0,0.3-0.2,0.6-0.6,0.7v0c0.3,0.1,0.4,0.3,0.5,0.7
	c0.1,0.4,0.1,0.6,0.2,0.7H464c-0.1-0.1-0.1-0.3-0.2-0.7c-0.1-0.3-0.2-0.4-0.6-0.4h-0.3V251.7z M461.3,250.3c0,1.2,0.9,2.2,2.1,2.2
	c1.2,0,2.1-1,2.1-2.2c0-1.2-0.9-2.2-2.1-2.2C462.2,248.1,461.3,249.1,461.3,250.3 M466.2,250.3c0,1.5-1.2,2.8-2.8,2.8
	c-1.6,0-2.8-1.2-2.8-2.8c0-1.5,1.3-2.8,2.9-2.8C465,247.5,466.2,248.7,466.2,250.3 M186,294.3c-0.3,0-0.5,0-0.8,0
	c-2.6,0-5.2-0.4-7.4-1.1c-7.3-2.1-11.7-7.3-11.7-13.8v-0.6h3v0.6c0,5.1,3.5,9.2,9.5,11c2.1,0.6,4.4,1,6.7,1c0.2,0,0.5,0,0.7,0
	c1.9,0,4-0.3,5.9-0.9c5.6-1.6,8.7-5.2,8.7-9.7c0-7.4-7.7-8.4-15.9-9.4l-0.3,0c-8.6-1.1-17.6-2.2-17.6-11.4c0-5.7,3.9-10.2,10.5-12.1
	c2-0.6,4.4-0.9,7.1-0.9c2.4,0,4.8,0.3,7.1,0.9c7,2.1,11,6.5,11,12.2v0.6h-3V260c0-6.1-6.2-8.6-8.8-9.3c-4.5-1.2-9.1-1.1-12.6-0.1
	c-5.3,1.5-8.3,4.9-8.3,9.2c0,6.2,6.2,7.4,15.1,8.5c9.2,1.1,18.6,2.3,18.6,12.3c0,6-4,10.6-10.9,12.7
	C190.5,294,188.2,294.3,186,294.3 M216.8,309.7h-3.2l7-16.2l-19.4-46.1h3.2l17.8,42.6l18.8-42.6h3.2L216.8,309.7z M262,294.3
	c-0.3,0-0.5,0-0.8,0h0c-2.6,0-5.2-0.4-7.4-1.1c-7.3-2.1-11.6-7.3-11.6-13.8v-0.6h3v0.6c0,5.1,3.5,9.2,9.5,11c2.1,0.6,4.4,1,6.8,1
	c0.2,0,0.4,0,0.7,0c1.9,0,4-0.3,5.9-0.9c5.6-1.6,8.7-5.2,8.7-9.7c0-7.4-7.7-8.4-15.9-9.4l-0.3,0c-8.7-1.1-17.6-2.2-17.6-11.4
	c0-5.7,3.9-10.2,10.5-12.1c2-0.6,4.4-0.9,7.1-0.9c2.4,0,4.8,0.3,7.1,0.9c7,2.1,11,6.5,11,12.2v0.6h-3V260c0-6.1-6.2-8.6-8.8-9.3
	c-4.5-1.2-9.1-1.1-12.6-0.1c-5.3,1.5-8.3,4.9-8.3,9.2c0,6.2,6.2,7.4,15.1,8.5c9.2,1.1,18.6,2.3,18.6,12.3c0,6-4,10.6-10.9,12.7
	C266.6,294,264.3,294.3,262,294.3 M298.6,294.1c-10,0-11.9-5.8-11.9-15.9v-27.7h-8.5v-2.9h8.5v-9.4h3v9.4h12.5v2.9h-12.5v27.7
	c0,10.2,1.6,14,12.5,12.8l0.6-0.1l0.3,2.9l-0.6,0.1C301.1,294,299.8,294.1,298.6,294.1 M304.3,268.4h39.5c-1-11-8.8-18.3-19.7-18.3
	c-8.6,0-15.3,4.4-18.3,12C305,264.1,304.5,266.2,304.3,268.4 M324.1,294.2c-9.9,0-17.6-5.1-21.1-14c-1.1-2.8-1.7-6.1-1.7-9.6
	c0-3.5,0.6-6.7,1.7-9.5c3.5-8.9,11.2-14,21.1-14c6.4,0,12,2.2,16.2,6.4c4.3,4.3,6.6,10.3,6.5,17.1l0,0.6h-42.5
	c0.1,2.8,0.6,5.5,1.5,7.9c3,7.7,9.7,12,18.3,12c8.3,0,14.6-3.9,17.8-11l0.2-0.4h3.1l-0.4,0.9C341.3,289.3,333.8,294.2,324.1,294.2
	 M419.7,293.9h-3v-25.8c-0.1-5.9-1.6-10.6-4.3-13.5c-2.6-2.9-6.2-4.3-10.7-4.3h-0.2c-3.2,0-7.7,0.8-10.9,4.8
	c-2.6,3.2-3.9,7.6-3.9,13.5v25.4h-3v-25.4c0-6.1-1.5-10.8-4.3-13.9c-2.5-2.8-6.2-4.3-10.6-4.3h-0.2c-3.2,0-7.7,0.8-10.9,4.8
	c-2.5,2.9-3.8,7.2-3.9,12.7v26.1h-3v-46.5h3v8.1c0.4-0.9,1-1.6,1.5-2.3c4-4.8,9.4-5.8,13.3-5.8h0.2c5.3,0,9.8,1.8,12.9,5.2
	c1.5,1.6,2.8,4,3.6,6.6c0.7-2.5,2-4.6,3.1-6c3.9-4.8,9.4-5.8,13.2-5.8h0.2c5.3,0,9.8,1.8,12.8,5.2c3.3,3.7,5,8.9,5.1,15.6V293.9z
	 M444.2,294.3c-0.3,0-0.5,0-0.8,0h0c-2.6,0-5.2-0.4-7.4-1.1c-7.3-2.1-11.6-7.3-11.6-13.8v-0.6h3v0.6c0,5.1,3.5,9.2,9.5,11
	c2.1,0.6,4.4,1,6.8,1c0.2,0,0.4,0,0.7,0c2,0,4-0.3,5.9-0.9c5.6-1.6,8.7-5.2,8.7-9.7c0-7.4-7.7-8.4-15.9-9.4l-0.3,0
	c-8.7-1.1-17.6-2.2-17.6-11.4c0-5.7,3.9-10.2,10.5-12.1c2-0.6,4.4-0.9,7.1-0.9c2.4,0,4.8,0.3,7.1,0.9c7,2.1,11,6.5,11,12.2v0.6h-3
	V260c0-6.1-6.2-8.6-8.8-9.3c-4.5-1.2-9.1-1.1-12.6-0.1c-5.3,1.5-8.3,4.9-8.3,9.2c0,6.2,6.2,7.4,15.1,8.5c9.2,1.1,18.6,2.3,18.6,12.3
	c0,6-4,10.6-10.9,12.7C448.7,294,446.4,294.3,444.2,294.3"/>
<path class="st1" d="M-109,218.1c-6.2,0-10.6,0.3-12.9,1c-0.1,0-0.2,0-0.3,0.1c-4,0.9-6.5,3.2-7.3,7.1c-1,4.9,4.7,10.7,4.8,10.7
	c0.3,0.3,34.9,29.7,38.1,32.5c3.4,2.9,8,4.4,10.6,3.3c1.1-0.5,1.9-1,2.5-1.5c-1,0.3-2,0.5-3,0.5c-2.2,0-4.1-0.7-5.9-2.1
	c-6.5-5.1-14-20.4-15.2-23.2l-0.5-1.1c-2-4.6-4.8-10.9-3.2-19.1c0.8-3.8,2-6.6,2.6-7.8C-100.5,218.3-104.6,218.1-109,218.1"/>
<path class="st2" d="M-107.9,215.9c4.2,0,8.1,0.2,10.1,0.4l1.2,0.1c5,0.5,11.9,1.2,18.2,6.7c2.9,2.5,4.7,5,5.5,6.1
	c1.9-3,9.6-15.2,10.9-20.5c0-0.1,0-0.2,0.1-0.3c1.2-3.9,0.4-7.2-2.5-9.8c-1.4-1.2-3.5-1.9-6.3-1.9c-2.9,0-5.4,0.7-5.4,0.7
	c-0.4,0.1-43.1,15.5-47.1,16.9c-3.7,1.3-7.7,4.3-8.1,7.6c-0.1,1.1-0.1,2.1,0.1,2.9c0.6-2.7,2.4-5.5,5.8-6.9
	C-121.1,216.3-113.5,215.9-107.9,215.9"/>
<path class="st0" d="M-95.6,246.4c1.6,3.1,8.3,16,12.2,19.7c0.1,0.1,0.1,0.1,0.2,0.2c0.7,0.8,3,3.3,6.7,3.3c1,0,2-0.2,3-0.5
	c4.8-1.6,6.9-9.5,6.9-9.5c0.1-0.4,8.3-45.1,9.1-49.2c0.8-3.9,0.2-8.8-2.4-10.8c-0.9-0.7-1.8-1.1-2.6-1.4c2,1.9,3.6,4.8,3,8.5
	c-1.2,8.2-10.7,22.3-12.5,24.8l-0.7,1c-3,4.1-7.1,9.7-15,12.3C-91.2,246-94.2,246.3-95.6,246.4"/>
</svg>
